<mxfile host="app.diagrams.net" modified="2024-04-03T18:08:25.177Z" agent="Mozilla/5.0 (Windows NT 10.0; Win64; x64) AppleWebKit/537.36 (KHTML, like Gecko) Chrome/123.0.0.0 Safari/537.36" version="24.2.2" etag="g2FLa2cGhhVgZ-e3pHKu" type="github">
  <diagram name="PÃ¡gina-1" id="KWAi8ZXi5mQGWeSsUiQG">
    <mxGraphModel>
      <root>
        <mxCell id="0" />
        <mxCell id="1" parent="0" />
      </root>
    </mxGraphModel>
  </diagram>
</mxfile>
